<svg version="1.1" id="processor_svg" xmlns="http://www.w3.org/2000/svg" xmlnsXlink="http://www.w3.org/1999/xlink" x="0px" y="0px"
			viewBox="0 0 673.5 834.5"  xmlSpace="preserve" 	>
			<g>
				<path className="st0" d="M372.3,342v-1.3l-33,1.3v9.7l33-1.3v-2.8l46.9-2.4l11,15l45.6-1.8l26.3-36.5l93-5.7c0.8,3,3,5.1,5.5,5.1
					c3.2,0,5.9-3.5,5.9-7.9s-2.6-7.9-5.9-7.9c-2.6,0-4.7,2.2-5.5,5.3l-95.1,5.4l-25.6,37.4l-42,0.8L420.9,340l-48.5,2.8V342z
					M600.7,309.8c1.4,0,2.5,1.4,2.5,3.1s-1.1,3.1-2.5,3.1s-2.5-1.4-2.5-3.1S599.3,309.8,600.7,309.8z"/>
				<path className="st0" d="M339.3,356.1v10.3l33-1v-3.3l44.1-1.3l12.1,16.3l49.8-1.8l14.5-20.3l41.7-1.7c0.9,2.6,2.8,4.4,5,4.4
					c3,0,5.5-3.3,5.5-7.4c0-4.1-2.5-7.4-5.5-7.4c-2.3,0-4.3,2-5.1,4.8l-43,1.4l-14.9,20.3l-46.4,1.9l-11.8-16.1l-46.1,1.9v-1.9
					L339.3,356.1z M539.6,347.3c1.3,0,2.4,1.4,2.4,3.1c0,1.7-1.1,3.1-2.4,3.1s-2.4-1.4-2.4-3.1C537.3,348.7,538.3,347.3,539.6,347.3z"
					/>
				<path className="st0" d="M339.3,381.2l32.8-1.2v-3.8l42-0.9l13.4,18.5l56.8-1.4l15.3,20.4h17.6c0.8,2.9,2.8,4.9,5.1,4.9
					c3,0,5.4-3.3,5.4-7.4c0-4.1-2.4-7.4-5.4-7.4c-2,0-3.8,1.5-4.7,3.8L501,407l-14.5-20.4l-57.6,1.1l-13.1-18.3l-43.6,2.1v-2.1l-32.8,1
					V381.2z M522.2,407c1.4,0,2.5,1.5,2.5,3.4c0,1.9-1.1,3.4-2.5,3.4c-1.4,0-2.5-1.5-2.5-3.4C519.7,408.5,520.8,407,522.2,407z"/>
				<path className="st0" d="M339.3,394.8h32.8v-3.5l40.2-0.5l11.6,17.1l53.5-0.6l21.5,29l36.4,0.1c0.4,3.7,2.7,6.5,5.6,6.5
					c3.1,0,5.6-3.4,5.6-7.7c0-4.2-2.5-7.7-5.6-7.7c-2.3,0-4.2,1.9-5.1,4.5v-1H501l-21.5-29.6l-53.3,0.9l-12.4-16.9l-41.7,0.9V384
					l-32.8,0.9V394.8z M541,431.7c1.4,0,2.6,1.6,2.6,3.5c0,1.9-1.1,3.5-2.6,3.5c-1.4,0-2.6-1.6-2.6-3.5
					C538.4,433.3,539.6,431.7,541,431.7z"/>
				<path className="st0" d="M658.3,421.1c-2.8,0-5.1,2.2-6,5.3h-55.6l-18.6,24.1l-81.8-0.4l-20.9-28.9l-49.3,0.5l-15.8-21.6l-38.3,0.6
					v-1.6l-32.8,0.9v9.3l32.8-0.5V406l36.5-0.8l15.4,22.3h49.4l21.1,29h85.9l18.4-23.7l53.7-1.1c0.9,2.8,3.2,4.8,5.9,4.8
					c3.5,0,6.3-3.4,6.3-7.7C664.6,424.6,661.8,421.1,658.3,421.1z M658.3,432.4c-1.6,0-2.9-1.6-2.9-3.5c0-1.9,1.3-3.5,2.9-3.5
					c1.6,0,2.9,1.6,2.9,3.5C661.2,430.8,659.9,432.4,658.3,432.4z"/>
				<path className="st0" d="M642.2,443.2c-2.6,0-4.8,2.1-5.7,5.1l-43-0.5L568,481.4l-133-1.8l-14.3-19.9h-48.6v-2.4h-32.8v9.6l32.8,0.5
					v-2.4h46.7l13.8,19.5l137,3.1L596,454l40.6-0.1c0.9,2.8,3.1,4.7,5.6,4.7c3.3,0,6.1-3.4,6.1-7.7
					C648.3,446.6,645.5,443.2,642.2,443.2z M642.2,454.4c-1.5,0-2.8-1.6-2.8-3.5c0-1.9,1.2-3.5,2.8-3.5c1.5,0,2.8,1.6,2.8,3.5
					C645,452.8,643.7,454.4,642.2,454.4z"/>
				<path className="st0" d="M588.4,543c-0.9,0-1.8,0.3-2.5,0.8l-22.5-31.1l-58.3-1.4l-20.4,26.5l-47.3-1.8l-32-46.2l-33.3-0.6v-2.4
					l-32.8-0.6v9.5l32.8,1v-2.8l30.7,1.1l33,46.6l51,2.3l20.9-27l53.8,1.6l21.5,29l0.4-0.5c-0.4,1.1-0.7,2.3-0.7,3.6
					c0,4.2,2.5,7.7,5.7,7.7c3.1,0,5.7-3.4,5.7-7.7C594.1,546.4,591.6,543,588.4,543z M588.4,554.2c-1.4,0-2.6-1.6-2.6-3.5
					c0-1.9,1.2-3.5,2.6-3.5c1.4,0,2.6,1.6,2.6,3.5C591,552.6,589.9,554.2,588.4,554.2z"/>
				<path className="st0" d="M546.9,526.9c-2.1,0-3.8,1.6-4.8,4v-0.3l-37.9-1l-16.4,21.3l-55.1-3l-30.5-44.4l-0.3,0.7l-29.8-0.5v-2.5
					l-32.8-0.8v10l32.8,0.9v-2.4l27.7,0.5l0.2-0.4l31.1,44.9l58.8,3.3l16.1-21.8l35.7,1.2c0.7,3,2.7,5.2,5.1,5.2c3,0,5.4-3.3,5.4-7.4
					C552.3,530.2,549.9,526.9,546.9,526.9z M546.9,537.7c-1.4,0-2.5-1.5-2.5-3.4c0-1.9,1.1-3.4,2.5-3.4c1.4,0,2.5,1.5,2.5,3.4
					C549.3,536.2,548.2,537.7,546.9,537.7z"/>
				<path className="st0" d="M339.3,471.5v10.3h32.8V479l40,1.4l14.1,20h26.8c0.7,2.9,2.7,4.9,5.1,4.9c3,0,5.4-3.3,5.4-7.4
					c0-4.1-2.4-7.4-5.4-7.4c-2.3,0-4.2,1.9-5,4.7l0-0.2l-25.4-0.6l-13.3-19.1l-42.3-0.9V472L339.3,471.5z M458.1,494.5
					c1.4,0,2.5,1.5,2.5,3.4c0,1.9-1.1,3.4-2.5,3.4c-1.4,0-2.5-1.5-2.5-3.4C455.7,496,456.8,494.5,458.1,494.5z"/>
				<path className="st0" d="M430.2,586.6c0-0.1,0-0.2,0-0.2c0-0.3-0.1-0.6-0.1-1c0,0,0,0,0,0c-0.1-0.3-0.1-0.6-0.2-0.9
					c0-0.1,0-0.1-0.1-0.2c-0.1-0.3-0.2-0.6-0.3-0.8c0,0,0,0,0,0c-0.1-0.3-0.3-0.5-0.4-0.8c0-0.1-0.1-0.1-0.1-0.2
					c-0.3-0.5-0.6-0.9-1-1.2c0,0-0.1-0.1-0.1-0.1c-0.2-0.2-0.4-0.3-0.6-0.4l0,0l0.6-18.9L398.6,519l-26.5-0.6v-2.5l-32.8-1.5v10
					l32.8,1.4v-2.4l24.3,1l26.8,38.9l0.1,17.4l0,0c-0.7,0.4-1.3,1-1.8,1.8c0,0,0,0,0,0c-0.2,0.3-0.3,0.5-0.4,0.8c0,0,0,0,0,0
					c-0.1,0.3-0.2,0.6-0.4,0.9c0,0.1,0,0.1-0.1,0.2c-0.1,0.3-0.2,0.6-0.2,0.9c0,0,0,0,0,0.1c-0.1,0.3-0.1,0.6-0.2,1c0,0.1,0,0.2,0,0.2
					c0,0.3-0.1,0.7-0.1,1c0,0.2,0,0.3,0,0.5c0,0.2,0,0.3,0,0.5c0,4.1,2.3,7.4,5.1,7.4c2.8,0,5.1-3.3,5.1-7.4c0-0.2,0-0.3,0-0.5
					c0-0.2,0-0.3,0-0.5C430.3,587.3,430.2,587,430.2,586.6z M425.2,591c-1.2,0-2.1-1.3-2.3-2.9c0.2-1.6,1.1-2.9,2.3-2.9
					c1.2,0,2.1,1.3,2.3,2.9C427.3,589.8,426.4,591,425.2,591z"/>
				<path className="st0" d="M339.3,452.6h32.8v-2.4h52.2l13.4,18.5l18.3,0.5c0.7,2.7,2.4,4.6,4.4,4.6c2.6,0,4.8-3.3,4.8-7.4
					c0-4.1-2.1-7.4-4.8-7.4c-2,0-3.7,1.9-4.4,4.6l-16.7,0.1l-13.1-19.1l-54.1,0.5v-2.4h-32.8V452.6z M460.4,463.1
					c1.2,0,2.2,1.5,2.2,3.4c0,1.9-1,3.4-2.2,3.4c-1.2,0-2.2-1.5-2.2-3.4C458.3,464.6,459.2,463.1,460.4,463.1z"/>
				<path className="st0" d="M339.3,414.3v9.4h32.8v-3h33.2l5.1,6.9l0.3-0.5c-0.5,1.1-0.8,2.5-0.8,4c0,4.1,2.3,7.4,5.1,7.4
					c2.8,0,5.1-3.3,5.1-7.4c0-4.1-2.3-7.4-5.1-7.4c-0.8,0-1.6,0.3-2.3,0.8l0.6-0.8L407,415l-34.8,0.8v-2.1L339.3,414.3z M415.1,427.6
					c1.3,0,2.3,1.5,2.3,3.4c0,1.9-1,3.4-2.3,3.4c-1.3,0-2.3-1.5-2.3-3.4C412.8,429.1,413.9,427.6,415.1,427.6z"/>
				<path className="st0" d="M339.3,428.5v9.5h32.8v-2.6h17.8c0.7,2.6,2.6,4.4,4.8,4.4c2.8,0,5.1-3.1,5.1-6.8s-2.3-6.8-5.1-6.8
					c-2.1,0-3.9,1.6-4.7,4l-17.9,0.5v-2.1H339.3z M394.7,429.9c1.3,0,2.3,1.4,2.3,3.1s-1.1,3.1-2.3,3.1c-1.3,0-2.3-1.4-2.3-3.1
					S393.4,429.9,394.7,429.9z"/>
				<path className="st0" d="M123.9,221.7c1.8,0,3.3-2,3.8-4.7l7.8-0.1l13.3,19l0.4,32l-15.4,26v42.5l23.3,36h15.2v1.5l27.2-1.2v-9l-27.2,1
					v2.7h-14l-20.3-33v-39.1l14.7-25.2v-36.3l-15.2-22.5l-10.1,0.7c-0.7-2-1.9-3.3-3.4-3.3c-2.2,0-3.9,2.9-3.9,6.5
					S121.8,221.7,123.9,221.7z M123.9,212.7c1,0,1.7,1.1,1.7,2.5s-0.8,2.5-1.7,2.5s-1.7-1.1-1.7-2.5S123,212.7,123.9,212.7z"/>
				<path className="st0" d="M96,309.5h-0.8v24.3l12.6,20.6l25.5-1l20.4,32.1h18.5v1.3l27.2-1.2v-8.8l-27.2,1v2.7h-16.8l-20.1-32.3L110,349
					l-11.8-17.5v-21.8c1.6-0.6,2.8-2.9,2.8-5.7c0-3.2-1.6-5.9-3.7-5.9s-3.7,2.6-3.7,5.9C93.7,306.5,94.6,308.6,96,309.5z M97.4,301.8
					c0.9,0,1.6,1,1.6,2.3s-0.7,2.3-1.6,2.3s-1.6-1-1.6-2.3S96.5,301.8,97.4,301.8z"/>
				<path className="st0" d="M81.7,384.9c1.8,0,3.3-2,3.8-4.8h12.1l8.6-15.4l25.1-1l21.6,34.8h19.3v1.3l27.2-0.8v-8.7h-27.2v3h-17.5
					l-21.4-35.1l-28.4,1.5l-9.3,14.5l-10.5,0.1c-0.7-2-1.9-3.4-3.4-3.4c-2.2,0-4,3.1-4,6.9S79.5,384.9,81.7,384.9z M81.8,376.2
					c0.8,0,1.5,0.9,1.5,1.9c0,1.1-0.7,1.9-1.5,1.9c-0.8,0-1.5-0.9-1.5-1.9C80.3,377,80.9,376.2,81.8,376.2z"/>
				<path className="st0" d="M60.6,420.6c1.8,0,3.2-1.8,3.8-4.3h36.5l10.1-16.5l20.3-0.7l8.3,12.9l32.7-0.7v1.7h27.2v-9.2h-27.2v2.3h-31
					l-8.7-12.8l-23.7,1.3l-9.6,15.8l-35.3,0.4v0.2c-0.7-1.6-1.9-2.7-3.3-2.7c-2.2,0-4,2.8-4,6.1C56.7,417.9,58.4,420.6,60.6,420.6z
					M60.7,412.9c0.8,0,1.5,0.8,1.5,1.7c0,0.9-0.7,1.7-1.5,1.7c-0.8,0-1.5-0.8-1.5-1.7C59.2,413.7,59.9,412.9,60.7,412.9z"/>
				<path className="st0" d="M35.8,459c1.6,0,2.9-1.5,3.5-3.6h12.4l15.1-26.3l35.8-0.6l10.7-17.6l15.6-0.5l8.5,14h34.7v1.5h27.2V417h-27.2
					v2.2h-32.7l-9.1-14.4l-18.6,1.4L100.9,423l-35.3,0.8l-15.8,26.5H39.3c-0.6-2.1-1.9-3.6-3.5-3.6c-2.1,0-3.9,2.8-3.9,6.1
					C31.9,456.3,33.7,459,35.8,459z M35.9,451.3c0.8,0,1.5,0.8,1.5,1.7c0,0.9-0.7,1.7-1.5,1.7s-1.5-0.8-1.5-1.7
					C34.4,452.1,35.1,451.3,35.9,451.3z"/>
				<path className="st0" d="M126.3,487.9l15-24.7h30.8v2.3h27.2v-8.8h-27.2v2l-32.7-0.7l-15.2,24.3l-37.2-0.7l-13.7,22.7H56.2
					c-0.5-2.3-1.8-4-3.4-4c-2,0-3.6,2.8-3.6,6.1s1.6,6.1,3.6,6.1c1.4,0,2.6-1.3,3.2-3.3l19,0.3L89,487L126.3,487.9z M52.9,508.4
					c-0.8,0-1.4-0.8-1.4-1.7c0-0.9,0.6-1.7,1.4-1.7c0.8,0,1.4,0.8,1.4,1.7C54.3,507.6,53.7,508.4,52.9,508.4z"/>
				<path className="st0" d="M126.7,510.5l20.3-34.2h25.2v2.7h27.2v-9.3h-27.2v2l-26.9-0.7l-20.9,33.2L98,503.9l-9,14.9v18.4l0,0
					c-1.4,0.9-2.4,2.8-2.4,5.1c0,3.1,1.8,5.6,4.1,5.6c2.2,0,4.1-2.5,4.1-5.6c0-2-0.8-3.8-1.9-4.8l-0.1-16.3L100,509L126.7,510.5z
					M90.8,544c-0.9,0-1.5-0.7-1.5-1.6c0-0.9,0.7-1.6,1.5-1.6c0.9,0,1.5,0.7,1.5,1.6C92.3,543.3,91.7,544,90.8,544z"/>
				<path className="st0" d="M115.4,576.4c0-0.6,0-1.1-0.1-1.6l5.6-8.4l0.3-27l31.2-49.7h19.8v2.8h27.2v-9.3h-27.2v1.8l-22-0.7l-31.8,52
					l-0.5,0.6v12.2l-0.6,14l-4.1,7.5l0.1,0.3c-0.5-0.4-1.1-0.7-1.8-0.7c-2.1,0-3.8,2.7-3.8,6.1s1.7,6.1,3.8,6.1
					S115.4,579.7,115.4,576.4z M111.3,578.5c-0.9,0-1.6-1.1-1.6-2.4s0.7-2.4,1.6-2.4c0.9,0,1.6,1.1,1.6,2.4S112.2,578.5,111.3,578.5z"
					/>
				<path className="st0" d="M172.2,502.7v2.3l27.2,0.7v-9.2h-27.2v1.7l-18-0.7l-27.7,43.8l-0.3,30.9l-8.9,13.6c-0.4-0.2-0.8-0.3-1.2-0.3
					c-2.2,0-3.9,2.5-3.9,5.7c0,3.1,1.8,5.7,3.9,5.7s3.9-2.5,3.9-5.7c0-0.9-0.2-1.8-0.4-2.6l9.7-14.4l0.3-30.3l26.3-41.3H172.2z
					M116.1,593.6c-0.9,0-1.7-1.1-1.7-2.4s0.7-2.4,1.7-2.4s1.7,1.1,1.7,2.4S117,593.6,116.1,593.6z"/>
				<path className="st0" d="M199.3,519v-9.3l-27.2-0.7v2.2l-13.5-0.7l-24.2,37.7v56.5l8.3,13.7l0.2-0.2c-0.4,1-0.7,2.1-0.7,3.4
					c0,3.6,2,6.5,4.4,6.5c2.4,0,4.4-2.9,4.4-6.5s-2-6.5-4.4-6.5c-0.4,0-0.8,0.1-1.2,0.3l0,0l-7.7-12.5l-0.2-52l23.5-35.2h11v2.5
					L199.3,519z M146.7,618.8c1,0,1.9,1.2,1.9,2.7c0,1.5-0.8,2.7-1.9,2.7c-1,0-1.9-1.2-1.9-2.7C144.9,620,145.7,618.8,146.7,618.8z"/>
				<path className="st0" d="M199.3,439v-8.8h-27.2v2.6h-37.5l-7.8-12.9h-10.5l-4.6,7c-0.4-0.3-0.8-0.4-1.3-0.4c-2.1,0-3.8,3-3.8,6.7
					s1.7,6.7,3.8,6.7s3.8-3,3.8-6.7c0-0.6-0.1-1.2-0.1-1.8l3.6-6.3h7.4l7.4,12h39.7v2.7L199.3,439z M110.5,435.9c-1,0-1.8-1.1-1.8-2.4
					s0.8-2.4,1.8-2.4s1.8,1.1,1.8,2.4S111.6,435.9,110.5,435.9z"/>
				<path className="st0" d="M157.8,153.6l0.4,117.1l-17.3,27.9l0.6,32.9l17.7,27.7h13v1.3l27.2-1.2v-9h-27.2v4h-11.7L144.8,330l-0.2-30.1
					l15.9-26l0.8-118.5l7.3-12.1c0.4,0.3,0.9,0.5,1.4,0.5c2.2,0,4-3.1,4-6.9s-1.8-6.9-4-6.9c-2.2,0-4,3.1-4,6.9c0,0.9,0.1,1.8,0.3,2.6
					l-0.1-0.1L157.8,153.6z M170.1,135.1c0.8,0,1.5,0.9,1.5,1.9c0,1.1-0.7,1.9-1.5,1.9c-0.8,0-1.5-0.9-1.5-1.9
					C168.6,136,169.2,135.1,170.1,135.1z"/>
				<path className="st0" d="M422.1,684.6c-1.6,0-3.1,1.3-3.9,3.4v-0.3l-19.7-1.8l-15.4-25.2l-47.9-4.6l-18.9-28.6V586h0.9v-46.8H311V586
					h1.1v44.1l20.4,32.4l48.1,5.8l15.4,24.1l22.1,3.2c0.8,2.1,2.3,3.6,3.9,3.6c2.5,0,4.6-3.2,4.6-7.2
					C426.6,687.9,424.6,684.6,422.1,684.6z M421.9,694.7c-1.1,0-2-1.3-2-2.8c0-1.6,0.9-2.8,2-2.8s2,1.3,2,2.8
					C423.9,693.4,423,694.7,421.9,694.7z"/>
				<path className="st0" d="M361,636.3l-8.3,10.9l-11.6-0.5L326,622.3v-35.4h1.4V540h-7v46.9h1.3v36l17.7,29.8l15.7,2l8.4-11.5l53.3,5.5
					c0.8,2.4,2.3,4,4.1,4c2.5,0,4.6-3.2,4.6-7.2c0-4-2.1-7.2-4.6-7.2c-1.7,0-3.2,1.4-4,3.6v-0.2L361,636.3z M420.6,642.6
					c1.1,0,2,1.3,2,2.8c0,1.6-0.9,2.8-2,2.8s-2-1.3-2-2.8C418.6,643.9,419.5,642.6,420.6,642.6z"/>
				<path className="st0" d="M400,731.4c-0.3,0-0.6,0-0.8,0.1l0.2-0.2l-20.6-33.1l-18.4-1.6L347.2,676l-11.9-1.5l-28.1-43v-46.3h0.9v-46
					h-6.4v46h1.1v48.3l29.8,47.5l12.9,1.3l12.4,20.3l18.7,2.5l19.1,29.5c-0.5,1-0.8,2.3-0.8,3.6c0,3.7,2.3,6.7,5.2,6.7s5.2-3,5.2-6.7
					C405.2,734.4,402.9,731.4,400,731.4z M399.8,740.7c-1.3,0-2.3-1.2-2.3-2.6c0-1.5,1-2.6,2.3-2.6s2.3,1.2,2.3,2.6
					C402.1,739.5,401.1,740.7,399.8,740.7z"/>
				<path className="st0" d="M338.4,733.9L326,715.8v-27.3l-28.1-44.4l-0.5-59.4h1.1v-46.1H292v46.1h1.3v61.9l28.4,44.9v26.1l11.6,19
					l0.1,45.6l0.2,0.1c-1.5,1.1-2.5,3.3-2.5,5.9c0,3.7,2.1,6.7,4.8,6.7s4.7-3,4.7-6.7c0-2.4-0.9-4.5-2.2-5.6V733.9z M335.7,790.9
					c-1.2,0-2.1-1.2-2.1-2.6s0.9-2.6,2.1-2.6c1.2,0,2.1,1.2,2.1,2.6S336.9,790.9,335.7,790.9z"/>
				<path className="st0" d="M321.6,808.7V738l-5.9-8.3l0.6-34.3l-28.1-44v-67.4h0.9V538h-6.4v46.1h1.4v69.5l27.3,44.5l0.1,33.3l5.8,9
					l0.1,68.6l0,0c-1.3,1.2-2.2,3.3-2.2,5.7c0,3.7,2,6.7,4.5,6.7c2.5,0,4.5-3,4.5-6.7C324.2,812.1,323.1,809.8,321.6,808.7z
					M319.6,817.4c-1.1,0-2-1.2-2-2.6s0.9-2.6,2-2.6s2,1.2,2,2.6S320.7,817.4,319.6,817.4z"/>
				<path className="st0" d="M282.4,739.9v-22.3l-12.1-18.8V583h0.9v-45.8h-6.3V583h0.8l-0.3,117.1l12.4,20.1l0.1,19.6
					c-1.4,1.1-2.3,3.3-2.3,5.7c0,3.6,2,6.5,4.5,6.5c2.5,0,4.5-2.9,4.5-6.5C284.6,743.2,283.7,741.1,282.4,739.9z M280,748.1
					c-1.1,0-2-1.1-2-2.6s0.9-2.6,2-2.6s2,1.1,2,2.6S281.1,748.1,280,748.1z"/>
				<path className="st0" d="M259.1,750.8c-0.4,0-0.8,0.1-1.2,0.2l0.2-0.3l-9.1-13.5l-0.1-14.9l12.1-15.9v-124h1.1v-45.7h-5.9v45.7h0.6
					v120.6l-12.3,15.6v20l10.3,16.6l0.2-0.3c-0.2,0.7-0.3,1.5-0.3,2.3c0,3.6,2,6.5,4.5,6.5c2.5,0,4.5-2.9,4.5-6.5
					C263.6,753.7,261.6,750.8,259.1,750.8z M259,759.9c-1.1,0-2-1.1-2-2.6s0.9-2.6,2-2.6s2,1.1,2,2.6S260.1,759.9,259,759.9z"/>
				<path className="st0" d="M233,755.3c-0.2,0-0.3,0-0.5,0c0,0,0,0,0,0c-0.1,0-0.3,0.1-0.4,0.1h0l-9.2-15l0.1-72.1l20.2-29.3v-58.2h1.1
					v-44.9h-6.3v44.9h1v54.4l-20.5,29.4v77.4l10.4,16.9c0,0,0,0,0,0c-0.1,0.2-0.1,0.4-0.2,0.7c0,0,0,0.1,0,0.1c0,0.2-0.1,0.4-0.1,0.6
					c0,0.1,0,0.1,0,0.2c0,0.2-0.1,0.4-0.1,0.5c0,0.1,0,0.1,0,0.2c0,0.2,0,0.5,0,0.8c0,3.6,2,6.5,4.5,6.5s4.5-2.9,4.5-6.5
					C237.5,758.2,235.5,755.3,233,755.3z M232.9,764.4c-1.1,0-2-1.1-2-2.6c0-1.4,0.9-2.6,2-2.6c1.1,0,2,1.1,2,2.6
					C234.9,763.2,234,764.4,232.9,764.4z"/>
				<path className="st0" d="M249,797.6v-43.2l-13.4-21.8l0.3-47.8l16.1-23.1v-80.1h1v-45.3h-6.1v45.3h1.1l-0.1,76.7L230.8,681v53.5
					l14.4,23.5l-0.6,39.4l0.1,0.1c-1.4,1.1-2.4,3.3-2.4,5.8c0,3.6,2,6.5,4.5,6.5c2.5,0,4.5-2.9,4.5-6.5
					C251.3,800.8,250.4,798.7,249,797.6z M246.6,805.8c-1.1,0-2-1.1-2-2.6s0.9-2.6,2-2.6c1.1,0,2,1.1,2,2.6S247.7,805.8,246.6,805.8z"
					/>
				<path className="st0" d="M234.4,581.1h1.2v-45.7h-6.2v45.7h1.2v35.2l-23.8,33v33.9l-13.5,18.6c-0.3-0.1-0.7-0.1-1,0
					c-2.5,0.4-4.1,3.5-3.5,7.1s3,6.1,5.4,5.7c2.5-0.4,4.1-3.5,3.5-7.1c0-0.3-0.1-0.6-0.2-0.9l13.7-18.8l0.4-35.1l22.6-32.8L234.4,581.1
					z M193.4,710.7c-1.1,0.2-2.2-0.8-2.4-2.2c-0.2-1.4,0.5-2.6,1.6-2.8c1.1-0.2,2.2,0.8,2.4,2.2C195.2,709.3,194.5,710.5,193.4,710.7z"
					/>
				<path className="st0" d="M189.2,615.9c1.4,0,2.6-1.1,3.4-2.6l15.8,1.3l8.8-12.2v-23.3h1.3v-44.9h-6.5v44.9h1.2v20.5l-7.1,8.4l-12.9-0.8
					c-0.7-2.5-2.3-4.3-4.2-4.2c-2.4,0.1-4.3,3-4.2,6.6C184.8,613.2,186.8,616,189.2,615.9z M188.9,607c1.1,0,2,1.1,2,2.5
					c0,1.4-0.8,2.6-1.9,2.6c-1.1,0-2-1.1-2-2.5C186.9,608.1,187.8,607,188.9,607z"/>
				<path className="st0" d="M225.4,608.6v-28.8h1.7V535h-6.6v44.8h1.4v25.1l-16.6,22.5l-38.5-3.1l-13.5,20.2v33.4l-7.9,9.9l-8-1.1
					c-0.7-1.8-2.1-3-3.6-3c-2.3,0-4.2,2.6-4.2,5.9c0,3.3,1.9,5.9,4.2,5.9c1.4,0,2.6-0.9,3.3-2.3l10.8,2l9.5-14.1l0.3-32.5L169,631
					l38.8,3.4L225.4,608.6z M133.7,692c-1,0-1.8-1.1-1.8-2.4s0.8-2.4,1.8-2.4c1,0,1.8,1.1,1.8,2.4S134.6,692,133.7,692z"/>
				<path className="st0" d="M272.6,674.8c0,3.4,2,6.2,4.5,6.2s4.5-2.8,4.5-6.2c0-2.4-1-4.5-2.5-5.5v-86h1.2v-46.1h-6.4l0.3,46.1h0.8v86
					C273.6,670.3,272.6,672.4,272.6,674.8z M277.1,671.6c1.1,0,1.9,1.4,1.9,3s-0.9,3-1.9,3s-1.9-1.4-1.9-3S276,671.6,277.1,671.6z"/>
				<path className="st0" d="M270.8,129.3c0-3.6-2.1-6.5-4.8-6.5c-2.6,0-4.8,2.9-4.8,6.5c0,2.6,1.1,4.8,2.8,5.9v34.7l19.9,26.8l0.6,83.1
					h-1.8v46h6.6v-46h-1.1v-85.6L268,167.4v-32.3C269.7,134.1,270.8,131.9,270.8,129.3z M266,131.8c-1,0-1.8-1.1-1.8-2.6
					s0.8-2.6,1.8-2.6c1,0,1.8,1.1,1.8,2.6S267,131.8,266,131.8z"/>
				<path className="st0" d="M264,18.6l-0.4,55.8l-11.8,20.8l-0.5,77.7l23.8,31.4v76.3h-1.3v46.1h6.4v-46.1H279V202l-23.6-31.4V97
					l12.4-19.9l0.2-58.8c1.5-1,2.6-2.9,2.6-5.1c0-3.2-2.1-5.8-4.8-5.8c-2.6,0-4.8,2.6-4.8,5.8C261,15.7,262.2,17.7,264,18.6z
					M265.8,10.9c1,0,1.8,1,1.8,2.3c0,0.5-0.1,0.9-0.3,1.2l-0.8,0.9c-0.2,0.1-0.4,0.2-0.7,0.2c-1,0-1.8-1-1.8-2.3
					C264,12,264.8,10.9,265.8,10.9z"/>
				<path className="st0" d="M302.4,198.8v79.1h-0.8v46.8h6.6v-46.8h-1.2v-77.4l21.4-33.1V89.9l21.4-33.3l20.6-4.1c0.9,1.4,2.1,2.3,3.6,2.4
					c2.8,0.1,5.2-2.9,5.3-6.7c0.1-3.8-2-7-4.8-7.1c-2.3-0.1-4.3,1.9-5,4.8L347,50.5L324.2,88l0.3,76.2L302.4,198.8z M374.3,45.2
					c1,0,1.8,1.3,1.8,2.8s-1,2.7-2,2.7c-1,0-1.8-1.3-1.8-2.8S373.3,45.1,374.3,45.2z"/>
				<path className="st0" d="M292,27.4v38.7l20,26.4l0.6,73.2l-19,30l0.2,83.3h-1.4v46.4h6.4V279h-1.7l0.7-79.7l18.8-30.9l0.3-79.5
					l-20.7-25.8V27.4c1.6-1,2.7-3,2.7-5.3c0-3.3-2.1-5.9-4.8-5.9c-2.6,0-4.8,2.7-4.8,5.9C289.3,24.4,290.4,26.4,292,27.4z M294.1,19.7
					c1,0,1.8,1.1,1.8,2.4c0,1.3-0.8,2.4-1.8,2.4c-1,0-1.8-1.1-1.8-2.4C292.3,20.8,293.1,19.7,294.1,19.7z"/>
				<path className="st0" d="M235.2,56.4V192l22,29.9v60.4h-1.3l0.2,45.6h6l-0.1-45.6h-1.3V219l-22.3-30.1l0.1-132.8c1.6-0.9,2.8-3,3-5.5
					c0.3-3.5-1.5-6.6-4-6.8c-2.6-0.2-4.9,2.5-5.2,6C232,52.8,233.3,55.5,235.2,56.4z M235.1,50.1c0.1-1.4,1-2.5,2-2.4
					c1,0.1,1.6,1.3,1.5,2.7c-0.1,1.4-1,2.5-2,2.4C235.7,52.7,235,51.5,235.1,50.1z"/>
				<path className="st0" d="M245,25.2c1.7,0,3.2-1.1,4.1-2.9l0,0l4.3,2.5v38.8l-11,18.2l0.2,98.3l23.2,32v68.8h-0.9v46.4h6.8v-46.4h-1.6
					v-71.8l-23.2-31.7L246.5,84l10.6-18.1V24.2l-7.4-5.2l0,0c-0.2-2.9-2.1-5.3-4.5-5.3c-2.6,0-4.7,2.5-4.7,5.7
					C240.4,22.6,242.4,25.2,245,25.2z M245.1,17.2c1,0,1.7,1,1.7,2.3c0,1.3-0.8,2.3-1.8,2.3s-1.7-1-1.7-2.3
					C243.4,18.2,244.2,17.2,245.1,17.2z"/>
				<path className="st0" d="M205.8,49.2v46l16.1,21.4l0.3,108.2l17,24l0.3,35.1h-1.6v45.3h6.5v-45.3h-1.2v-38.2L225.4,222V113.4
					l-15.6-20.1l-0.4-44.5c1.4-0.9,2.5-2.8,2.5-5c0.1-3.2-1.9-5.8-4.5-5.8c-2.6-0.1-4.7,2.5-4.8,5.6C202.6,46.2,203.9,48.4,205.8,49.2z
					M207.3,41.5c1,0,1.7,1.1,1.7,2.3c0,1.3-0.8,2.2-1.8,2.2c-1,0-1.7-1.1-1.7-2.3S206.4,41.4,207.3,41.5z"/>
				<path className="st0" d="M198.4,131.8c2.3,0.2,4.4-1.9,5-5l2.4-0.9l6.1,7.8l0.1,95.4l18.6,26.4v29.1l4,0l-4.8,0.2l-0.3,45.3h5.9v-45.5
					l-0.8,0V253l-19.2-26.3l0.2-95.4l-8.3-10.8l-4.4,0.9c-0.7-1.4-1.9-2.3-3.2-2.4c-2.6-0.2-4.9,2.5-5.2,6
					C194,128.5,195.8,131.6,198.4,131.8z M197.2,125.3c0.1-1.4,1-2.5,2-2.4c1,0.1,1.6,1.3,1.5,2.7c-0.1,1.4-1,2.5-2,2.4
					C197.8,127.9,197.1,126.7,197.2,125.3z"/>
				<path className="st0" d="M370.9,194.1l-38.1,5.8l-21,32.4l0.6,44.9h0l-1.4,0.1v46.6h6.9v-46.9l-2.1,0.1l0.7-42l18.5-28.9l37.8-5
					l26.8-40.8l-0.3-0.4c0.2,0,0.4,0.1,0.6,0.1c3.2,0.3,6-2.7,6.3-6.6c0.3-3.9-1.9-7.3-5.1-7.6c-3.2-0.3-6,2.7-6.3,6.6
					c-0.1,1.4,0.1,2.8,0.6,3.9L370.9,194.1z M398.4,152.8c0.1-1.6,1.2-2.7,2.4-2.6c1.2,0.1,2,1.5,1.9,3c-0.1,1.6-1.2,2.7-2.4,2.6
					C399.1,155.7,398.2,154.4,398.4,152.8z"/>
				<path className="st0" d="M375.8,211.8l-43,5.1l-10.3,17v42.5l-2,0.2v47h6.6V276l-1,0.1v-40.2l8.9-14.1l38.6-4l10.9,15.1l25.8-3
					c0.8,2,2.3,3.4,4.2,3.6c3,0.3,5.7-2.7,6-6.7s-1.8-7.3-4.8-7.6c-2.4-0.2-4.5,1.6-5.5,4.3l-23.6,2.9L375.8,211.8z M413.1,226.2
					c0.1-1.6,1.2-2.7,2.3-2.6s1.9,1.4,1.8,3c-0.1,1.6-1.2,2.7-2.3,2.6C413.8,229.1,413,227.7,413.1,226.2z"/>
				<path className="st0" d="M213.5,264.2v22.1h-1.6V331h6.5v-44.8h-1.3v-24.7l-16.8-23.4l-0.3-33.9l-4.7-6.5c0.2-0.7,0.4-1.4,0.5-2.2
					c0.3-3.7-1.6-7-4.4-7.2c-2.8-0.2-5.3,2.6-5.6,6.3c-0.3,3.7,1.6,7,4.4,7.2c0.8,0.1,1.5-0.1,2.2-0.5l4.4,5.6v33.7L213.5,264.2z
					M192.6,195.4c-0.1,1.5-1.1,2.6-2.1,2.5c-1-0.1-1.8-1.4-1.6-2.8c0.1-1.5,1.1-2.6,2.1-2.5C192,192.6,192.7,193.9,192.6,195.4z"/>
				<path className="st0" d="M184.8,170.6c1.9,0.2,3.7-1.3,4.6-3.6l7.1-2l7.5,9.8l0.4,60.2l17.8,24.6v26.6l-1.5,0.1v44h6v-44.5l-1.3,0.1
					V257l-17.3-24.6v-60.1l-9.9-13l-8.5,1.3c-0.7-1.9-2-3.3-3.7-3.4c-2.6-0.2-5,2.6-5.3,6.3C180.4,167.2,182.2,170.4,184.8,170.6z
					M183.7,163.7c0.1-1.5,1-2.6,2-2.5c1,0.1,1.7,1.3,1.5,2.8s-1,2.6-2,2.5C184.2,166.5,183.5,165.2,183.7,163.7z"/>
				<path className="st0" d="M227.4,96.5l0.4,106.6l20.5,27.8v52l-1.5,0v45.6h6.5l0-45.8l-1.8,0v-55.2l-19.9-27.5L231.3,93l-12.5-15.1V35.2
					l2.1-4.9l0,0c0.8,0.9,1.9,1.5,3.1,1.6c2.8,0.2,5.2-2,5.5-5.1c0.3-3.1-1.7-5.7-4.5-6c-2.8-0.2-5.2,2-5.5,5.1c-0.1,0.6,0,1.1,0.1,1.7
					l-0.1-0.2l-4.1,7.2l0.1,45.8L227.4,96.5z M222.7,26.2c0.1-1.2,1-2.1,2.1-2c1,0.1,1.8,1.1,1.7,2.4s-1,2.1-2.1,2
					C223.4,28.5,222.6,27.4,222.7,26.2z"/>
				<path className="st1" d="M329.5,326.2l-117.4,7.5c0,0-5.2-0.4-8.3,3.6c-1.2,1.5-2.1,7.3-2.1,7.3v177.2c0,0,1.6,4.5,2.6,5.8
					c0.8,1.1,3.9,3.5,3.9,3.5l117.9,4.8c0,0,4.1-4.1,6.4-7.1c3.8-5,4.1-7.1,4.1-7.1l0.6-185.4c0,0-1-5.6-2.1-7
					C333.9,328,329.5,326.2,329.5,326.2z M329.5,517c0,0-2.1,2.7-2.8,3.5c-0.9,1.2-3.7,4.7-3.7,4.7l-114.3-4.5V344.3l120.8-7V517z"/>
				<path className="st0" d="M213.1,419.4l0.7,9.7l0.2-0.1c-0.2,0.6-0.3,1.4-0.2,2.3c0.2,1.2,0.6,2.2,1.2,2.7l2.3,9.4
					c-0.1,0.4-0.2,0.8-0.2,1.2c0,1.4,0.8,2.6,1.9,2.6c0.2,0,0.4,0,0.5-0.1l5.5,7.1l7.2,0.6h0.2l0,0c0.3,1,1.1,1.7,2,1.7l3.2,5.3
					l6.6,1.3l0,0c0.2,1.6,1,2.8,2.1,2.8c0.2,0,0.4-0.1,0.6-0.2l7,7.2l6.2-0.7l0,0c0.2,0.2,0.4,0.3,0.7,0.4l4.4,8.1v-0.3l0.2-0.2
					l-0.2,0.4l6.4,5.3l0-0.1c0.1,0.5,0.3,1,0.7,1.3l1.5,13l0,0c-0.4,0.4-0.6,1-0.6,1.6c0,1.4,1.2,2.6,2.6,2.6c0.9,0,1.6-0.4,2.1-1.1
					l0,0l5.3,3.5c0,0,0.8,0.1,1,0c0.6-0.4,1.3-1.8,1.2-2.4c-0.1-0.4-1.2-1.4-1.2-1.4l0.6-18.5l-0.2,0c0.1,0,0.1,0,0.2-0.1l0,0.1
					l9.4,0.4l8.5-4.3l0,0c0.3,0.3,0.7,0.4,1.2,0.4c1.2,0,2.2-1.3,2.2-2.9c0-0.3,0-0.6-0.1-0.8l0,0l5.2-6.9l-0.2-0.1
					c0.8-0.3,1.4-1.2,1.4-2.3c0-0.5-0.1-0.9-0.3-1.2l0,0l1.2-6.4l-0.9-1.2l-1.6-2l-8.1,1.1l2-15l0,0c0,0,0,0,0,0l0,0l11.7,8.4l-5.7,5.4
					l2.5,3.3l7.3-8.4c0,0,0.1,0,0.1-0.1l1.5-10.5l3.7-9.2l0,0c0.6-0.5,0.9-1.4,0.9-2.4c0-1-0.4-1.8-0.9-2.4h0l-2.3-4.7l-0.3-7.3
					c0-1.6-1.1-2.9-2.4-2.9c-0.2,0-0.4,0.1-0.7,0.1l0,0l-1.4-1.8l-0.4-6.4l0,0c0.1-0.2,0.1-0.4,0.1-0.7c0-1.4-1.2-2.6-2.6-2.6
					c-0.3,0-0.5,0-0.7,0.1l0,0l-3.8-4.6l-1.7-8.6l-9-4.9l-3.6-5.6l0,0c0.1-0.4,0.2-0.9,0.2-1.3c0-1.8-0.9-3.3-2.1-3.3
					c-0.5,0-1,0.3-1.4,0.8l0,0l-8.7-0.6l0,0c-0.1-0.2-0.2-0.3-0.3-0.4l0.1-0.1l-5.7-4.5l0,0c-0.3-1.2-1.1-2.1-2-2.1
					c-0.8,0-1.5,0.6-1.8,1.5l-5.3,0.6v0c-0.3-0.4-0.8-0.6-1.2-0.6c-0.5,0-0.9,0.2-1.2,0.6l-5.1-0.3l0,0c-0.1-1.3-0.7-2.2-1.6-2.2
					c-0.7,0-1.3,0.8-1.5,1.9l0,0l-4.2,1.7l0,0c-0.2-0.2-0.5-0.3-0.8-0.3c-0.6,0-1.1,0.3-1.4,0.9h-6.4l0,0c-0.3-0.8-0.8-1.3-1.4-1.3
					c-0.9,0-1.7,1.4-1.7,3c0,0.6,0.1,1.1,0.3,1.6l-0.3-0.2l-2.7,4.9l0,0c-0.6,0.1-1.1,0.6-1.3,1.2l0,0l-5.7,1.6
					c-0.2-0.1-0.5-0.2-0.8-0.2c-1.1,0-2,1.2-2,2.6c0,0.5,0.1,1.1,0.3,1.5l0,0l-5.8,8.4l-6.8,5.3l0,0c-0.4-0.4-0.9-0.6-1.5-0.6
					c-1.4,0-2.6,1.5-2.6,3.3c0,1.1,0.4,2,1,2.6l0,0l-2.6,11.5c-0.5,0.4-0.9,1.1-0.9,1.8C211.9,418.3,212.4,419.1,213.1,419.4z
					M308.6,469.1l-4.9,6.5l-0.9-12.1l5.6,4.8C308.4,468.5,308.5,468.8,308.6,469.1L308.6,469.1z M302.7,461.7L302.7,461.7l1.5-0.4
					l6.8-1.7l-0.7,6.2c-0.3,0-0.6,0.1-0.9,0.3l-4.4-5L302.7,461.7L302.7,461.7C302.7,461.7,302.7,461.7,302.7,461.7z M219.4,442.1
					l-2.4-8.8l0,0c0.1-0.1,0.1-0.2,0.1-0.4l7.8,5.7l0.7-0.5l-5.5,4.6l0,0C220,442.4,219.7,442.2,219.4,442.1z M233.1,423.8
					c0,0.6,0.1,1.2,0.4,1.7l0,0l-5.3,9.6l-3.4-14.3l0,0c0,0,0,0,0,0l0,0L233.1,423.8z M232.3,407C232.3,407,232.3,407,232.3,407
					L232.3,407l1.8,14.3c-0.2,0.2-0.5,0.5-0.6,0.9l0,0l-8.6-3l0,0.2c0-0.1,0-0.2,0-0.3l0,0.1l7.4-10.5L232.3,407L232.3,407z
					M240.7,411.5l-4.4,9.2c0,0-0.1,0-0.1,0l-2.1-13.8h0c0,0,0,0,0,0v0L240.7,411.5z M252.4,384.1l-3,6.1l0.5,0.4
					c-0.3-0.1-0.7-0.2-1-0.2l-6.3-8.8l0,0c0,0,0,0,0,0l0,0L252.4,384.1z M246.8,396.5L246.8,396.5L246.8,396.5
					C246.8,396.5,246.8,396.5,246.8,396.5z M248.9,397.5c0.2,0,0.4,0,0.6-0.1l0,0l5.2,17.3l0,0c-0.2,0.1-0.3,0.3-0.4,0.5l0,0l-10.2-5.3
					L248.9,397.5z M265.9,406.3c0,0.3,0,0.5,0.1,0.8l-0.1-0.1l-8.6,7.8l0,0c-0.3-0.2-0.5-0.4-0.8-0.4l-5.2-18.2l0,0c0,0,0,0,0-0.1l0,0
					L265.9,406.3z M263.6,388.5c0.4,0.1,0.7,0.2,1.1,0.2l0,0l2.2,15.3c-0.1,0.1-0.2,0.1-0.2,0.2l-14.8-10.3L263.6,388.5L263.6,388.5z
					M266.2,388.5c0,0,0.1,0,0.2,0L266.2,388.5L266.2,388.5z M283.8,391.9L283.8,391.9c0.2,0.3,0.5,0.7,0.8,1.1l0,0l-4.2,12.6l0,0
					c-0.2,0-0.3-0.1-0.5-0.1c-0.3,0-0.6,0.1-0.9,0.3l-11.3-17.9l0,0c0,0,0,0,0,0l0,0L283.8,391.9z M268.5,385.3L268.5,385.3l7.2-4.3
					l7.9,8.7l-14.9-3.6C268.7,385.8,268.6,385.6,268.5,385.3z M292.7,425.5l-15.5,6.2l3.1-16.4c0.6-0.1,1.1-0.5,1.5-1.1l0,0.1
					L292.7,425.5z M297.1,407.5l-2.9,16.7l0,0c0,0,0,0,0,0l0,0l0.2-0.9l-11.5-12.2l0,0.1c0-0.1,0-0.2,0-0.4l0,0.2L297.1,407.5z
					M296.4,404.6L296.4,404.6C296.4,404.6,296.4,404.6,296.4,404.6L296.4,404.6z M295.7,429.6l6.3,12c0,0.2,0,0.3,0,0.5l0,0l-8.6,9.4
					l2-21.7C295.6,429.6,295.7,429.6,295.7,429.6z M290.3,452.7l-12.4-17.8l-0.1,0.3c0-0.2,0.1-0.3,0.1-0.5l0,0.2l15.5-6.4
					c0,0.1,0.1,0.1,0.1,0.1L290.3,452.7z M292.4,452.9c-0.3-0.1-0.6-0.2-0.8-0.2c0,0-0.1,0-0.1,0l0.8,0L292.4,452.9z M276.8,465.6
					C276.8,465.6,276.8,465.5,276.8,465.6L276.8,465.6l0.2-28.7l-0.1,0c0.1-0.1,0.2-0.2,0.3-0.3l-0.1,0.3l12.3,18c0,0.1,0,0.2,0,0.3
					L276.8,465.6L276.8,465.6z M275.4,431.3C275.4,431.3,275.4,431.3,275.4,431.3L275.4,431.3l-6.1-8.7l9-7.9l0,0c0,0,0,0,0,0l0,0
					L275.4,431.3L275.4,431.3z M270.1,451L270.1,451l5-12.1v25.5c0,0,0,0-0.1,0l-4.9-11.5C270.2,452.2,270.2,451.6,270.1,451z
					M268.7,449.9C268.7,449.9,268.7,449.9,268.7,449.9L268.7,449.9l-7.1-7.9l-0.3,0.4c0.1-0.3,0.2-0.6,0.3-1l0.1,0.5l12-6L268.7,449.9
					L268.7,449.9z M261.3,438.9C261.3,438.9,261.3,438.9,261.3,438.9L261.3,438.9l0.5-0.3l6-13.8c0.1,0,0.2,0,0.2-0.1l6.5,8.1l0,0
					c0,0,0,0,0,0l0,0L261.3,438.9L261.3,438.9z M260,437.5c-0.1,0-0.3-0.1-0.4-0.1l-1.8-17.8l0,0c0.1-0.1,0.1-0.2,0.2-0.3l0,0l8.1,3.9
					l0-0.1c0,0.3,0.1,0.6,0.3,0.9l0,0L260,437.5L260,437.5z M259.1,444L259.1,444L259.1,444C259.1,444,259.1,444,259.1,444z
					M257.6,439.3L257.6,439.3l-14.4-4.4l0,0c0,0,0,0,0,0l0,0l12.4-14.3l-0.1-0.1c0,0,0.1,0,0.1,0l-0.1,0l2.3,18l0,0
					C257.8,438.8,257.7,439,257.6,439.3z M257.6,442.3L257.6,442.3l-4.1,8.7l-10.3-13.9l0,0c0,0,0,0,0-0.1l0,0l14.2,4.9l0-0.6
					C257.5,441.7,257.6,442,257.6,442.3z M241.7,432.9L241.7,432.9c-0.2,0-0.3-0.1-0.5-0.1c-0.2,0-0.3,0-0.5,0.1l0,0l-3.3-6.8l0,0
					c0.3-0.3,0.5-0.8,0.6-1.3l0,0l14.2-4.2l1.5-1.8l0,0c0,0,0,0,0,0l0,0L241.7,432.9z M242.5,438.6L242.5,438.6L242.5,438.6
					C242.5,438.6,242.5,438.6,242.5,438.6z M229.3,437.1L229.3,437.1C229.3,437.1,229.3,437.1,229.3,437.1L229.3,437.1l6.4-10.1
					l3.8,7.2l0,0c0,0.1-0.1,0.2-0.1,0.2l0,0L229.3,437.1z M237.6,421.9l4.9-9.1l10.4,4.4l-15.2,4.9C237.7,422,237.7,421.9,237.6,421.9z
					M277,411.1L277,411.1c0,0.3,0.1,0.6,0.1,0.9l0-0.1l-7.6,7.6v-11.7l-0.1,0c0-0.1,0.1-0.1,0.1-0.2l0,0.1L277,411.1z M293.3,425.3
					L293.3,425.3C293.4,425.3,293.4,425.3,293.3,425.3L293.3,425.3z M277.4,408L277.4,408C277.4,408,277.4,408,277.4,408L277.4,408
					l-7.6-2.5l0,0c-0.2-0.7-0.6-1.3-1.1-1.6l0,0l-1.6-13L277.4,408z M267.3,408.7c0.1,0,0.1,0.1,0.2,0.1l-0.1,0.1l-0.4,11.6h0
					c-0.1,0.1-0.3,0.2-0.4,0.3l-8.2-3.8l0,0.1c0-0.1,0-0.1,0-0.2l0,0.1l0.4,0.2l8.6-8.3L267.3,408.7z M241.7,409.2l-6.5-4.8l11.2-6.7
					L241.7,409.2z M245.9,394.5l-11.6,7.6c0,0,0,0,0,0l2.6-10.6L245.9,394.5l0-0.2c0,0.1,0,0.2,0,0.4L245.9,394.5z M228,435.6
					C228,435.6,228,435.6,228,435.6L228,435.6L228,435.6z M226.1,436l0.4-0.1c-0.2,0.1-0.3,0.3-0.4,0.5v0l-8.9-6.3v0c0,0,0,0,0,0l0,0
					l6.1-7.6L226.1,436z M232.2,454.4L232.2,454.4c0,0.1,0.1,0.2,0.1,0.3L232.2,454.4z M232.5,452.1L232.5,452.1l-6.8-1.8l-4.7-5.6
					l5.6-4.5l0,0c0.3,0.2,0.6,0.4,1,0.4L232.5,452.1L232.5,452.1C232.5,452.1,232.5,452.1,232.5,452.1z M229.4,439.9h-0.5l0,0
					c0,0,0,0,0,0l0,0l10.3-2.5l0,0c0,0,0,0,0,0l0,0l-4.9,12.4L229.4,439.9z M239.3,458.2l-2.8-3.6l-0.2,0.2c0.1-0.3,0.2-0.7,0.2-1.1
					c0-0.7-0.2-1.3-0.5-1.8l4.3-12.8l0,0c0,0,0,0,0,0l0,0l4.2,21.1L239.3,458.2z M246.6,459.5l-4-20.2l9.7,14l0.3-0.3l-5.5,6.7l0,0
					C246.9,459.6,246.7,459.5,246.6,459.5z M258.8,469.3L258.8,469.3l-4.3,0l-6.2-6.8l0,0c0-0.3,0-0.6-0.1-0.8l0.1,0.2l5.4-5.9
					l5.6,10.4l0,0c-0.4,0.7-0.7,1.6-0.7,2.6C258.8,469,258.8,469.2,258.8,469.3z M260.8,465l-5.8-11.3l3.8-7.8L260.8,465
					C260.9,465,260.9,465,260.8,465z M263,465.3l-2.1-20.7l-0.5-0.9l0,0c0,0,0,0,0,0l0,0l6.9,8.8c-0.1,0.6-0.1,1.2,0,1.7l0,0L263,465.3
					C263.1,465.4,263.1,465.3,263,465.3z M272.4,483.8l-5.4-6.6l-2.5-6.8l-0.2,0.1c0.1-0.5,0.2-1,0.2-1.6c0-0.5-0.1-1-0.2-1.5l0.2,0.3
					l4.2-11.9l-0.1-0.1c0.2-0.1,0.3-0.2,0.5-0.4l0,0l4.5,11l0,0c-0.1,0.4-0.2,0.9-0.2,1.3h-8.9v1.2v1.5l0.2,0.6l9.1-1.3l0,0
					c0.1,0.3,0.3,0.6,0.4,0.8l0,0L272.4,483.8z M274.1,484L274.1,484l1.9-13.3c0,0,0,0,0,0l5.4,11.3L274.1,484L274.1,484
					C274.1,484,274.1,484,274.1,484z M282.4,502.7l-4.2-1.6l0,0c-0.2-0.4-0.4-0.8-0.8-1.1l5.3-11.5L282.4,502.7z M282.7,484.2
					l-6.6,13.6l-1.7-10.8c0.1-0.2,0.2-0.4,0.3-0.7l0.1,0.4L282.7,484.2L282.7,484.2C282.7,484.2,282.7,484.2,282.7,484.2L282.7,484.2z
					M283.2,480.5L283.2,480.5C283.3,480.5,283.2,480.5,283.2,480.5L283.2,480.5l-6-12l-0.1,0.3c0-0.2,0.1-0.4,0.1-0.6l0.1,0.3
					l12.5-10.3l0,0c0.1,0.2,0.3,0.3,0.4,0.4L283.2,480.5z M284.3,480.4l0.3,0l0.6-0.8l7.1-20.7l-0.4,0c0.3,0,0.6-0.1,0.8-0.2
					c0.1-0.1,0.4-0.3,0.5-0.5l6.3,2.4l0-0.1c0,0,0,0.1,0,0.1l0,0l-15,19.9l0.2,0.2C284.7,480.5,284.5,480.5,284.3,480.4z M285.7,481.3
					C285.7,481.3,285.7,481.3,285.7,481.3L285.7,481.3L285.7,481.3z M301.6,477.8l-0.1-0.2l-8.3,3.7h-6.6l14.3-18.4l1.2,13.6l0,0
					C301.8,476.8,301.6,477.3,301.6,477.8z M300.7,458.2L300.7,458.2L300.7,458.2C300.7,458.2,300.7,458.2,300.7,458.2z M302.5,445
					l-2.4,13L294,456c0-0.3-0.6-1.3-0.6-1.3l10.5-11.1L302.5,445z M303.4,439.5l0.1,0C303.5,439.5,303.5,439.5,303.4,439.5L303.4,439.5
					l-6.3-11.8l-0.1,0.1c0-0.1,0-0.1,0-0.2l11.8-1.8l0,0c0,0,0,0,0,0l0,0L303.4,439.5z M304.8,439.8L304.8,439.8L304.8,439.8
					C304.8,439.8,304.8,439.8,304.8,439.8z M311.5,426.5l-0.3-0.1c0.4-0.1,0.7-0.3,0.9-0.5l0,0l8.9,4.4h0l-14.9,8.7L311.5,426.5z
					M319.4,438.9l-1.9,9.8l-0.6,2.5l0.5-2.1l-10.5-7.2l15.3-8.8L319.4,438.9z M322.7,432.1L322.7,432.1
					C322.7,432.1,322.7,432.1,322.7,432.1L322.7,432.1z M319.9,418.3c0.2,0.1,0.3,0.1,0.5,0.1l0,0l0.3,5.4l2,3.7h0.2
					c-0.1,0.1-0.3,0.3-0.4,0.5l0,0l-9.4-4.5l6.9-5L319.9,418.3z M315.7,411.5l0.3,2.2l2.4,1.4l0,0c0,0.2,0,0.4,0,0.6
					c0,0.3,0.1,0.7,0.2,1l0,0l-6,5l0,0c-0.1-0.1-0.2-0.3-0.4-0.4l0,0L315.7,411.5z M314.9,406.4L314.9,406.4l-4.7,14.2l0,0c0,0,0,0,0,0
					l0,0l-9.7-14.1l13.7-0.5l0,0C314.4,406.2,314.6,406.4,314.9,406.4z M299.5,403.3l1-16v0.6l5.9,3l2.5,8.6l4.4,3.8l0,0
					c-0.1,0.2-0.1,0.5-0.1,0.7l-12.6,0.3l-0.7-0.9L299.5,403.3L299.5,403.3z M308.3,422.5L308.3,422.5
					C308.3,422.5,308.3,422.5,308.3,422.5L308.3,422.5l-11.7,2.3c-0.1-0.1-0.1-0.2-0.2-0.2l2.7-16.2L308.3,422.5z M297.2,406.9
					C297.2,406.9,297.2,407,297.2,406.9L297.2,406.9L297.2,406.9z M298.6,407.6l-0.6-0.3c0.1,0.1,0.2,0.1,0.3,0.2
					C298.3,407.5,298.4,407.6,298.6,407.6z M294.4,379.6L294.4,379.6c0.2,0.1,0.4,0.2,0.7,0.2l3.1,6.6l-0.4,16.8h0c0,0,0,0,0,0l0,0
					l-9.5-11.2v-1.3c0,0,0.1-0.6,0-0.8L294.4,379.6z M293.1,377.5L293.1,377.5C293.1,377.5,293.1,377.5,293.1,377.5L293.1,377.5
					l-6.5,11l-1-11.9L293.1,377.5z M286.6,388.5l-0.7-0.2c0,0-0.1,0-0.2-0.1L286.6,388.5z M286.6,393.9l9.2,10.9l-13.2,3.6l0,0
					c-0.1-0.2-0.1-0.4-0.2-0.6l0,0L286.6,393.9z M282.9,376.8l1.9,11.1c-0.2,0-0.3,0.1-0.5,0.2l0,0l-6.1-8.3L282.9,376.8
					C282.9,376.7,282.9,376.7,282.9,376.8z M270.4,371.3l0.1,0.3l4.9-0.5v0c0.4,0.6,1,1,1.6,1c0.5,0,0.9-0.2,1.3-0.6l-0.1,0.3l3.6,3.2
					c0,0,0,0,0,0l-5.4,1.4l-5.9-5l-0.2,0.3C270.3,371.7,270.4,371.5,270.4,371.3z M268.6,373.3c0.2,0,0.5-0.1,0.7-0.2l-0.2,0.2l5.4,5.5
					l-7.4,5.1L268.6,373.3z M255.9,371.8L255.9,371.8l4.8-0.8c0.1,0,0.3,0,0.4-0.1v0l5.7,0.3l0,0c0.1,0.3,0.2,0.7,0.3,0.9l-0.1-0.1
					l-2,11.3c-0.1,0-0.3,0-0.4,0l0,0L255.9,371.8L255.9,371.8C255.9,371.9,255.9,371.9,255.9,371.8z M262.3,384.2l0.5-0.2
					c-0.3,0.1-0.5,0.3-0.7,0.5L262.3,384.2l-7.3-2.7l-0.4-7.7L262.3,384.2z M254.6,384.2l6.8,1.9c0,0.1,0,0.2,0,0.3l0,0l-10.3,5.2l0,0
					c0,0,0,0,0-0.1l0,0L254.6,384.2z M242.5,379.1l2.8-4.1l-0.1,0c0.7-0.2,1.2-1.1,1.4-2.2l0.1,0.6h6.3v0c0,0,0,0,0,0h0l0,7.8
					l-10.2-1.3v0C242.7,379.5,242.6,379.3,242.5,379.1L242.5,379.1z M241,382.5l5.8,8.8c-0.1,0.2-0.3,0.4-0.4,0.6l0,0l-8.7-2.3
					L241,382.5z M234.6,384.3L234.6,384.3l4-1.3l-2.6,4.9l-1.7-2.9C234.4,384.8,234.5,384.5,234.6,384.3z M233.2,386.3l1.5,3.8l-2,11.6
					c-0.2,0.1-0.4,0.2-0.5,0.3l-5.4-6.4L233.2,386.3z M231.3,403.2c0,0.1-0.1,0.1-0.1,0.2L231.3,403.2L231.3,403.2z M224.9,398.1
					l5.1,4.9l-10.3-1.6L224.9,398.1z M219,403.7L219,403.7l12.3,1.8v0c0,0,0,0,0,0l0,0l-7.5,11.4c-0.2-0.1-0.3-0.1-0.5-0.1L219,403.7
					L219,403.7C219,403.7,219,403.7,219,403.7z M215.4,416.5l1.9-11.8l-0.1,0c0,0,0.1,0,0.1,0l-0.1,0l4.5,13.5
					c-0.1,0.4-0.2,0.9-0.2,1.4c0,0.4,0,0.7,0.1,1.1l-0.1-0.1l-6.1,7.1l0,0c0,0,0,0,0,0l0,0l-0.7-8.6h0c0.4-0.4,0.7-1,0.7-1.7
					C215.6,417.1,215.5,416.8,215.4,416.5z"/>
				<path className="st0" d="M65.2,455.4l6-0.3l4.9,8.1H112l7.7-12.8h52.5v2.7l27.2-0.8v-8.8h-27.2v2.3h-53.8l-7.8,12.3l-0.5,0.4H77.4
					l-4.7-8.1h-9.4l-11.2,19l-28.4,0.1c-0.5-2.4-1.8-4.1-3.4-4.1c-2,0-3.6,2.8-3.6,6.1s1.6,6.1,3.6,6.1c1.5,0,2.8-1.5,3.3-3.7l30.2,0.2
					L65.2,455.4z M20.5,473.4c-0.8,0-1.4-0.8-1.4-1.7c0-0.9,0.6-1.7,1.4-1.7c0.8,0,1.4,0.8,1.4,1.7C21.9,472.6,21.2,473.4,20.5,473.4z"
					/>
			</g>
		</svg>